{
    "asset" : {
        "generator" : "Khronos glTF Blender I/O v1.7.33",
        "version" : "2.0"
    },
    "scene" : 0,
    "scenes" : [
        {
            "name" : "Scene",
            "nodes" : [
                0
            ]
        }
    ],
    "nodes" : [
        {
            "mesh" : 0,
            "name" : "BrickWall"
        }
    ],
    "materials" : [
        {
            "doubleSided" : true,
            "name" : "BrickNormal",
            "pbrMetallicRoughness" : {
                "baseColorFactor" : [
                    0.07601646333932877,
                    0.07601646333932877,
                    0.07601646333932877,
                    1
                ],
                "metallicFactor" : 0
            }
        },
        {
            "doubleSided" : true,
            "name" : "BrickDark",
            "pbrMetallicRoughness" : {
                "baseColorFactor" : [
                    0.060227472335100174,
                    0.060227472335100174,
                    0.060227472335100174,
                    1
                ],
                "metallicFactor" : 0
            }
        },
        {
            "doubleSided" : true,
            "name" : "BrickBright",
            "pbrMetallicRoughness" : {
                "baseColorFactor" : [
                    0.11068795621395111,
                    0.11068795621395111,
                    0.11068795621395111,
                    1
                ],
                "metallicFactor" : 0
            }
        },
        {
            "doubleSided" : true,
            "name" : "BrickDarkest",
            "pbrMetallicRoughness" : {
                "baseColorFactor" : [
                    0.03667062520980835,
                    0.03667062520980835,
                    0.03667062520980835,
                    1
                ],
                "metallicFactor" : 0
            }
        }
    ],
    "meshes" : [
        {
            "name" : "Cube.643",
            "primitives" : [
                {
                    "attributes" : {
                        "POSITION" : 0,
                        "NORMAL" : 1,
                        "TEXCOORD_0" : 2
                    },
                    "indices" : 3,
                    "material" : 0
                },
                {
                    "attributes" : {
                        "POSITION" : 4,
                        "NORMAL" : 5,
                        "TEXCOORD_0" : 6
                    },
                    "indices" : 7,
                    "material" : 1
                },
                {
                    "attributes" : {
                        "POSITION" : 8,
                        "NORMAL" : 9,
                        "TEXCOORD_0" : 10
                    },
                    "indices" : 11,
                    "material" : 2
                },
                {
                    "attributes" : {
                        "POSITION" : 12,
                        "NORMAL" : 13,
                        "TEXCOORD_0" : 14
                    },
                    "indices" : 15,
                    "material" : 3
                }
            ]
        }
    ],
    "accessors" : [
        {
            "bufferView" : 0,
            "componentType" : 5126,
            "count" : 19620,
            "max" : [
                37.500030517578125,
                10.000006675720215,
                37.50001907348633
            ],
            "min" : [
                -37.50003433227539,
                0,
                -37.50003433227539
            ],
            "type" : "VEC3"
        },
        {
            "bufferView" : 1,
            "componentType" : 5126,
            "count" : 19620,
            "type" : "VEC3"
        },
        {
            "bufferView" : 2,
            "componentType" : 5126,
            "count" : 19620,
            "type" : "VEC2"
        },
        {
            "bufferView" : 3,
            "componentType" : 5123,
            "count" : 29430,
            "type" : "SCALAR"
        },
        {
            "bufferView" : 4,
            "componentType" : 5126,
            "count" : 1568,
            "max" : [
                37.49999237060547,
                10.000006675720215,
                37.49998092651367
            ],
            "min" : [
                -37.49998092651367,
                0,
                -37.499996185302734
            ],
            "type" : "VEC3"
        },
        {
            "bufferView" : 5,
            "componentType" : 5126,
            "count" : 1568,
            "type" : "VEC3"
        },
        {
            "bufferView" : 6,
            "componentType" : 5126,
            "count" : 1568,
            "type" : "VEC2"
        },
        {
            "bufferView" : 7,
            "componentType" : 5123,
            "count" : 2352,
            "type" : "SCALAR"
        },
        {
            "bufferView" : 8,
            "componentType" : 5126,
            "count" : 1888,
            "max" : [
                37.49999237060547,
                10.000006675720215,
                37.49998092651367
            ],
            "min" : [
                -37.49998092651367,
                0,
                -37.499996185302734
            ],
            "type" : "VEC3"
        },
        {
            "bufferView" : 9,
            "componentType" : 5126,
            "count" : 1888,
            "type" : "VEC3"
        },
        {
            "bufferView" : 10,
            "componentType" : 5126,
            "count" : 1888,
            "type" : "VEC2"
        },
        {
            "bufferView" : 11,
            "componentType" : 5123,
            "count" : 2832,
            "type" : "SCALAR"
        },
        {
            "bufferView" : 12,
            "componentType" : 5126,
            "count" : 944,
            "max" : [
                37.49999237060547,
                10.000006675720215,
                37.49998092651367
            ],
            "min" : [
                -37.49998092651367,
                0,
                -37.499996185302734
            ],
            "type" : "VEC3"
        },
        {
            "bufferView" : 13,
            "componentType" : 5126,
            "count" : 944,
            "type" : "VEC3"
        },
        {
            "bufferView" : 14,
            "componentType" : 5126,
            "count" : 944,
            "type" : "VEC2"
        },
        {
            "bufferView" : 15,
            "componentType" : 5123,
            "count" : 1416,
            "type" : "SCALAR"
        }
    ],
    "bufferViews" : [
        {
            "buffer" : 0,
            "byteLength" : 235440,
            "byteOffset" : 0
        },
        {
            "buffer" : 0,
            "byteLength" : 235440,
            "byteOffset" : 235440
        },
        {
            "buffer" : 0,
            "byteLength" : 156960,
            "byteOffset" : 470880
        },
        {
            "buffer" : 0,
            "byteLength" : 58860,
            "byteOffset" : 627840
        },
        {
            "buffer" : 0,
            "byteLength" : 18816,
            "byteOffset" : 686700
        },
        {
            "buffer" : 0,
            "byteLength" : 18816,
            "byteOffset" : 705516
        },
        {
            "buffer" : 0,
            "byteLength" : 12544,
            "byteOffset" : 724332
        },
        {
            "buffer" : 0,
            "byteLength" : 4704,
            "byteOffset" : 736876
        },
        {
            "buffer" : 0,
            "byteLength" : 22656,
            "byteOffset" : 741580
        },
        {
            "buffer" : 0,
            "byteLength" : 22656,
            "byteOffset" : 764236
        },
        {
            "buffer" : 0,
            "byteLength" : 15104,
            "byteOffset" : 786892
        },
        {
            "buffer" : 0,
            "byteLength" : 5664,
            "byteOffset" : 801996
        },
        {
            "buffer" : 0,
            "byteLength" : 11328,
            "byteOffset" : 807660
        },
        {
            "buffer" : 0,
            "byteLength" : 11328,
            "byteOffset" : 818988
        },
        {
            "buffer" : 0,
            "byteLength" : 7552,
            "byteOffset" : 830316
        },
        {
            "buffer" : 0,
            "byteLength" : 2832,
            "byteOffset" : 837868
        }
    ],
    "buffers" : [
        {
            "byteLength" : 840700,
            "uri" : "data:application/octet-stream;base64,"
        }
    ]
}
