{
    "asset" : {
        "generator" : "Khronos glTF Blender I/O v1.7.33",
        "version" : "2.0"
    },
    "scene" : 0,
    "scenes" : [
        {
            "name" : "Scene",
            "nodes" : [
                0
            ]
        }
    ],
    "nodes" : [
        {
            "mesh" : 0,
            "name" : "Floor"
        }
    ],
    "materials" : [
        {
            "doubleSided" : true,
            "name" : "BrickBright",
            "pbrMetallicRoughness" : {
                "baseColorFactor" : [
                    0.11068795621395111,
                    0.11068795621395111,
                    0.11068795621395111,
                    1
                ],
                "metallicFactor" : 0
            }
        }
    ],
    "meshes" : [
        {
            "name" : "Plane.025",
            "primitives" : [
                {
                    "attributes" : {
                        "POSITION" : 0,
                        "NORMAL" : 1,
                        "TEXCOORD_0" : 2
                    },
                    "indices" : 3,
                    "material" : 0
                }
            ]
        }
    ],
    "accessors" : [
        {
            "bufferView" : 0,
            "componentType" : 5126,
            "count" : 1444,
            "max" : [
                37.500030517578125,
                0,
                37.50001907348633
            ],
            "min" : [
                -37.50003433227539,
                -0.06454505771398544,
                -37.500030517578125
            ],
            "type" : "VEC3"
        },
        {
            "bufferView" : 1,
            "componentType" : 5126,
            "count" : 1444,
            "type" : "VEC3"
        },
        {
            "bufferView" : 2,
            "componentType" : 5126,
            "count" : 1444,
            "type" : "VEC2"
        },
        {
            "bufferView" : 3,
            "componentType" : 5123,
            "count" : 2166,
            "type" : "SCALAR"
        }
    ],
    "bufferViews" : [
        {
            "buffer" : 0,
            "byteLength" : 17328,
            "byteOffset" : 0
        },
        {
            "buffer" : 0,
            "byteLength" : 17328,
            "byteOffset" : 17328
        },
        {
            "buffer" : 0,
            "byteLength" : 11552,
            "byteOffset" : 34656
        },
        {
            "buffer" : 0,
            "byteLength" : 4332,
            "byteOffset" : 46208
        }
    ],
    "buffers" : [
        {
            "byteLength" : 50540,
            "uri" : "data:application/octet-stream;base64,"
        }
    ]
}
