{
    "asset" : {
        "generator" : "Khronos glTF Blender I/O v1.7.33",
        "version" : "2.0"
    },
    "scene" : 0,
    "scenes" : [
        {
            "name" : "Scene",
            "nodes" : [
                0
            ]
        }
    ],
    "nodes" : [
        {
            "mesh" : 0,
            "name" : "Cylinder"
        }
    ],
    "materials" : [
        {
            "doubleSided" : true,
            "name" : "Bow",
            "pbrMetallicRoughness" : {
                "baseColorFactor" : [
                    0.2462015151977539,
                    0.11697065830230713,
                    0.04518624395132065,
                    1
                ],
                "metallicFactor" : 0
            }
        },
        {
            "doubleSided" : true,
            "name" : "String",
            "pbrMetallicRoughness" : {
                "baseColorFactor" : [
                    0.6132760047912598,
                    0.5528712272644043,
                    0.4970152676105499,
                    1
                ],
                "metallicFactor" : 0
            }
        }
    ],
    "meshes" : [
        {
            "name" : "Cylinder",
            "primitives" : [
                {
                    "attributes" : {
                        "POSITION" : 0,
                        "NORMAL" : 1,
                        "TEXCOORD_0" : 2
                    },
                    "indices" : 3,
                    "material" : 0
                },
                {
                    "attributes" : {
                        "POSITION" : 4,
                        "NORMAL" : 5,
                        "TEXCOORD_0" : 6
                    },
                    "indices" : 7,
                    "material" : 1
                }
            ]
        }
    ],
    "accessors" : [
        {
            "bufferView" : 0,
            "componentType" : 5126,
            "count" : 338,
            "max" : [
                0.33571743965148926,
                9.48596477508545,
                1.711673378944397
            ],
            "min" : [
                -0.33571743965148926,
                -9.48596477508545,
                -2.0686450004577637
            ],
            "type" : "VEC3"
        },
        {
            "bufferView" : 1,
            "componentType" : 5126,
            "count" : 338,
            "type" : "VEC3"
        },
        {
            "bufferView" : 2,
            "componentType" : 5126,
            "count" : 338,
            "type" : "VEC2"
        },
        {
            "bufferView" : 3,
            "componentType" : 5123,
            "count" : 1524,
            "type" : "SCALAR"
        },
        {
            "bufferView" : 4,
            "componentType" : 5126,
            "count" : 48,
            "max" : [
                0.049271173775196075,
                8.874292373657227,
                -1.765505075454712
            ],
            "min" : [
                -0.04927115887403488,
                -8.874292373657227,
                -1.8640474081039429
            ],
            "type" : "VEC3"
        },
        {
            "bufferView" : 5,
            "componentType" : 5126,
            "count" : 48,
            "type" : "VEC3"
        },
        {
            "bufferView" : 6,
            "componentType" : 5126,
            "count" : 48,
            "type" : "VEC2"
        },
        {
            "bufferView" : 7,
            "componentType" : 5123,
            "count" : 84,
            "type" : "SCALAR"
        }
    ],
    "bufferViews" : [
        {
            "buffer" : 0,
            "byteLength" : 4056,
            "byteOffset" : 0
        },
        {
            "buffer" : 0,
            "byteLength" : 4056,
            "byteOffset" : 4056
        },
        {
            "buffer" : 0,
            "byteLength" : 2704,
            "byteOffset" : 8112
        },
        {
            "buffer" : 0,
            "byteLength" : 3048,
            "byteOffset" : 10816
        },
        {
            "buffer" : 0,
            "byteLength" : 576,
            "byteOffset" : 13864
        },
        {
            "buffer" : 0,
            "byteLength" : 576,
            "byteOffset" : 14440
        },
        {
            "buffer" : 0,
            "byteLength" : 384,
            "byteOffset" : 15016
        },
        {
            "buffer" : 0,
            "byteLength" : 168,
            "byteOffset" : 15400
        }
    ],
    "buffers" : [
        {
            "byteLength" : 15568,
            "uri" : "data:application/octet-stream;base64,"
        }
    ]
}
